
<svg  viewBox="0 0 64 64"  xmlns="http://www.w3.org/2000/svg">
    <path fill-rule="evenodd" clip-rule="evenodd" d="M21.1777 27.6846C21.1777 27.7757 21.1732 27.8441 21.1641 27.8896C21.1185 27.9079 21.082 27.9352 21.0547 27.9717C21.0273 27.999 20.9818 28.0081 20.918 27.999C20.8997 28.1357 20.8542 28.2497 20.7812 28.3408C20.7083 28.432 20.6309 28.514 20.5488 28.5869L20.3301 28.833C20.2572 28.9242 20.2116 29.0381 20.1934 29.1748C20.0566 29.2477 19.9199 29.3434 19.7832 29.4619C19.6556 29.5895 19.5417 29.6761 19.4414 29.7217C19.3685 29.7581 19.291 29.7855 19.209 29.8037C19.127 29.8311 19.0449 29.863 18.9629 29.8994C18.6986 30.0179 18.4251 30.141 18.1426 30.2686C17.8691 30.3962 17.582 30.46 17.2812 30.46H17.1855C17.1491 30.4964 17.1035 30.5192 17.0488 30.5283C16.9941 30.5465 16.9395 30.5602 16.8848 30.5693C16.8301 30.5785 16.7754 30.5921 16.7207 30.6104C16.666 30.6286 16.625 30.6559 16.5977 30.6924C16.4974 30.6559 16.388 30.6377 16.2695 30.6377H16.1738C16.0189 30.6742 15.873 30.7015 15.7363 30.7197C15.5996 30.738 15.4538 30.7471 15.2988 30.7471C15.0254 30.7471 14.752 30.7288 14.4785 30.6924C14.2051 30.6559 13.9316 30.624 13.6582 30.5967C13.485 30.46 13.3438 30.2868 13.2344 30.0771C13.125 29.8766 13.0703 29.6624 13.0703 29.4346C13.0703 29.2614 13.1068 29.0973 13.1797 28.9424C13.2526 28.7965 13.3483 28.6644 13.4668 28.5459H13.5078C13.5898 28.5459 13.6719 28.5277 13.7539 28.4912C13.8451 28.4548 13.9316 28.4365 14.0137 28.4365C14.1048 28.4365 14.1777 28.473 14.2324 28.5459C14.2962 28.6188 14.3418 28.7054 14.3691 28.8057C14.4056 28.9059 14.4284 29.0062 14.4375 29.1064C14.4466 29.2158 14.4512 29.3024 14.4512 29.3662C14.5514 29.4118 14.6562 29.4391 14.7656 29.4482C14.8841 29.4574 15.0026 29.4619 15.1211 29.4619C15.2396 29.4619 15.3717 29.4528 15.5176 29.4346C15.6634 29.4255 15.8092 29.4027 15.9551 29.3662C16.11 29.3389 16.2559 29.3024 16.3926 29.2568C16.5384 29.2113 16.6615 29.152 16.7617 29.0791C17.263 29.0335 17.7051 28.9196 18.0879 28.7373C18.4707 28.555 18.8763 28.3408 19.3047 28.0947C19.3229 27.9945 19.3594 27.917 19.4141 27.8623C19.4779 27.7985 19.5098 27.7074 19.5098 27.5889C19.5098 27.5706 19.5052 27.5524 19.4961 27.5342V27.4658C19.3138 27.238 19.1224 27.0374 18.9219 26.8643C18.7305 26.6911 18.4798 26.5771 18.1699 26.5225C18.1335 26.4404 18.0742 26.3812 17.9922 26.3447C17.9102 26.2992 17.8236 26.2581 17.7324 26.2217C17.6413 26.1852 17.5547 26.1488 17.4727 26.1123C17.3906 26.0667 17.3314 25.9938 17.2949 25.8936C17.0488 25.848 16.7936 25.7933 16.5293 25.7295C16.2741 25.6566 16.0553 25.529 15.873 25.3467C15.7272 25.3376 15.5859 25.3102 15.4492 25.2646C15.3216 25.21 15.194 25.1598 15.0664 25.1143C14.9388 25.0596 14.8066 25.014 14.6699 24.9775C14.5332 24.932 14.3919 24.9092 14.2461 24.9092C14.2096 24.8454 14.1595 24.7952 14.0957 24.7588C14.0319 24.7223 13.959 24.6904 13.877 24.6631L13.6582 24.5811C13.5944 24.5446 13.5443 24.4945 13.5078 24.4307C13.4714 24.4398 13.444 24.458 13.4258 24.4854C13.4076 24.5127 13.3757 24.5264 13.3301 24.5264H13.2754C13.2572 24.4717 13.2207 24.4352 13.166 24.417C13.1113 24.3896 13.0794 24.3395 13.0703 24.2666C12.9062 24.2575 12.7559 24.2256 12.6191 24.1709C12.4915 24.1162 12.3685 24.057 12.25 23.9932C12.1406 23.9202 12.0267 23.8519 11.9082 23.7881C11.7897 23.7243 11.6576 23.6742 11.5117 23.6377C11.4206 23.5648 11.334 23.4873 11.252 23.4053C11.179 23.3141 11.0833 23.2686 10.9648 23.2686C10.9375 23.2686 10.8874 23.2777 10.8145 23.2959C10.7962 23.1318 10.7279 23.0179 10.6094 22.9541C10.4909 22.8812 10.3633 22.8174 10.2266 22.7627C10.1354 22.5257 10.0124 22.3161 9.85742 22.1338C9.70247 21.9515 9.53385 21.7829 9.35156 21.6279C9.36979 21.5732 9.37891 21.5322 9.37891 21.5049C9.37891 21.4137 9.35612 21.3363 9.31055 21.2725C9.26497 21.1995 9.21484 21.1403 9.16016 21.0947C9.03255 20.6846 8.96875 20.2835 8.96875 19.8916C8.96875 19.3447 9.0918 18.8389 9.33789 18.374C9.57487 17.9001 9.95312 17.5446 10.4727 17.3076C10.4818 17.2347 10.5046 17.1709 10.541 17.1162C10.5866 17.0615 10.6139 16.9977 10.623 16.9248C10.7051 16.9248 10.7689 16.9066 10.8145 16.8701C10.86 16.8337 10.901 16.7972 10.9375 16.7607C10.9831 16.7152 11.0286 16.6742 11.0742 16.6377C11.1198 16.6012 11.179 16.5785 11.252 16.5693C11.5983 16.2686 11.9674 16.027 12.3594 15.8447L13.5625 15.2568C13.6445 15.2204 13.7129 15.152 13.7676 15.0518H13.8496C13.9408 15.0518 14.0091 15.0335 14.0547 14.9971C14.1094 14.9515 14.1868 14.9378 14.2871 14.9561C14.3236 14.9014 14.3691 14.8649 14.4238 14.8467C14.4876 14.8285 14.5469 14.8148 14.6016 14.8057C14.6654 14.7874 14.7246 14.7646 14.7793 14.7373C14.834 14.71 14.8704 14.6689 14.8887 14.6143H14.9844C15.1393 14.6143 15.2897 14.5915 15.4355 14.5459C15.5814 14.4912 15.7272 14.432 15.873 14.3682H15.9688C16.151 14.3682 16.3197 14.3363 16.4746 14.2725C16.6387 14.1995 16.8118 14.1494 16.9941 14.1221C17.0671 14.1038 17.14 14.0993 17.2129 14.1084C17.2858 14.1175 17.3587 14.1221 17.4316 14.1221C17.4772 14.1221 17.5319 14.1175 17.5957 14.1084C17.6595 14.0993 17.7051 14.0719 17.7324 14.0264H17.7598C17.8145 14.0264 17.8464 14.0446 17.8555 14.0811C17.8646 14.1175 17.8919 14.1357 17.9375 14.1357C18.0013 14.1357 18.0651 14.1266 18.1289 14.1084C18.1927 14.0902 18.2565 14.0811 18.3203 14.0811C18.5938 14.0811 18.8626 14.1084 19.127 14.1631C19.4004 14.2178 19.6693 14.2679 19.9336 14.3135C19.9518 14.4229 19.9974 14.5003 20.0703 14.5459C20.1523 14.5915 20.2389 14.6325 20.3301 14.6689V14.7236C20.3301 14.7965 20.3483 14.8558 20.3848 14.9014C20.3483 15.029 20.2845 15.1247 20.1934 15.1885C20.1022 15.2523 20.002 15.307 19.8926 15.3525C19.9382 15.389 19.9655 15.4391 19.9746 15.5029C19.9837 15.5667 19.9883 15.626 19.9883 15.6807V15.8447L19.9199 15.8311C19.7741 15.8311 19.7012 15.8994 19.7012 16.0361C19.5827 15.9632 19.4505 15.9176 19.3047 15.8994C19.168 15.8812 19.0312 15.8721 18.8945 15.8721C18.7122 15.8721 18.5208 15.8812 18.3203 15.8994C18.1198 15.9085 17.9238 15.904 17.7324 15.8857C17.6595 15.9769 17.5684 16.0452 17.459 16.0908C17.3496 16.1273 17.2402 16.1455 17.1309 16.1455C17.0124 16.1455 16.8984 16.1227 16.7891 16.0771C16.6797 16.0225 16.6022 15.945 16.5566 15.8447C16.5111 15.8265 16.4701 15.8174 16.4336 15.8174H16.3105C16.1647 15.8174 16.0189 15.8356 15.873 15.8721C15.7363 15.8994 15.5951 15.9359 15.4492 15.9814C15.3034 16.0179 15.1576 16.0589 15.0117 16.1045C14.875 16.141 14.7337 16.1637 14.5879 16.1729C14.5332 16.2458 14.4603 16.2959 14.3691 16.3232C14.278 16.3506 14.2051 16.4007 14.1504 16.4736C13.959 16.5101 13.7858 16.5739 13.6309 16.665C13.4759 16.7471 13.3255 16.8382 13.1797 16.9385L12.7559 17.2256C12.6191 17.3167 12.4642 17.3942 12.291 17.458C12.1634 17.5947 12.0449 17.7041 11.9355 17.7861C11.8262 17.8682 11.6849 17.9411 11.5117 18.0049C11.4023 18.0413 11.3385 18.096 11.3203 18.1689C11.3112 18.2419 11.2747 18.3148 11.2109 18.3877C11.1562 18.4515 11.0879 18.5016 11.0059 18.5381C10.9329 18.5654 10.8691 18.6156 10.8145 18.6885C10.7689 18.7523 10.7324 18.8298 10.7051 18.9209C10.6868 19.0029 10.6641 19.085 10.6367 19.167C10.6094 19.249 10.5775 19.3311 10.541 19.4131C10.5046 19.486 10.4499 19.5498 10.377 19.6045C10.377 19.641 10.3724 19.6774 10.3633 19.7139V19.8096C10.3633 19.9372 10.377 20.0693 10.4043 20.2061C10.4408 20.3337 10.4635 20.4613 10.4727 20.5889C10.6549 20.9079 10.8691 21.1995 11.1152 21.4639C11.3613 21.7191 11.6257 21.9561 11.9082 22.1748C12.1908 22.3936 12.4824 22.5986 12.7832 22.79C13.0931 22.9814 13.3984 23.1683 13.6992 23.3506C13.8086 23.3415 13.9089 23.3551 14 23.3916C14.0911 23.4189 14.1868 23.4372 14.2871 23.4463C14.3965 23.5283 14.5241 23.5921 14.6699 23.6377L15.1074 23.7744C15.2533 23.82 15.3945 23.8747 15.5312 23.9385C15.668 23.9932 15.7819 24.0706 15.873 24.1709C15.9186 24.18 15.9596 24.1937 15.9961 24.2119C16.0326 24.221 16.0736 24.2256 16.1191 24.2256C16.1738 24.2256 16.2057 24.2074 16.2148 24.1709C16.625 24.3258 17.026 24.499 17.418 24.6904C17.8099 24.8727 18.2246 25.014 18.6621 25.1143C18.8353 25.2601 19.0267 25.3877 19.2363 25.4971C19.446 25.6064 19.6556 25.7204 19.8652 25.8389C20.0749 25.9482 20.2754 26.0713 20.4668 26.208C20.6582 26.3356 20.8268 26.4906 20.9727 26.6729C20.9909 26.846 21.0273 27.0146 21.082 27.1787C21.1458 27.3337 21.1777 27.5023 21.1777 27.6846ZM30.5703 19.4951V19.5498C30.5065 19.568 30.4746 19.6136 30.4746 19.6865C30.3743 19.7321 30.2695 19.7686 30.1602 19.7959C30.0508 19.8141 29.946 19.846 29.8457 19.8916C29.7454 19.8825 29.6406 19.8779 29.5312 19.8779C29.431 19.8688 29.3307 19.8643 29.2305 19.8643C28.957 19.8643 28.6836 19.8734 28.4102 19.8916C28.1367 19.9098 27.8633 19.9098 27.5898 19.8916C27.4622 19.9645 27.321 20.0238 27.166 20.0693C27.0202 20.1058 26.8789 20.124 26.7422 20.124C26.6328 20.124 26.5371 20.1104 26.4551 20.083C26.2363 20.1924 25.9948 20.2835 25.7305 20.3564C25.4753 20.4294 25.2155 20.5023 24.9512 20.5752C24.6868 20.639 24.4316 20.7165 24.1855 20.8076C23.9486 20.8896 23.7389 21.0081 23.5566 21.1631C23.5384 21.2907 23.5247 21.4183 23.5156 21.5459C23.5065 21.6644 23.502 21.7829 23.502 21.9014C23.502 22.029 23.5065 22.1475 23.5156 22.2568C23.5339 22.3662 23.5658 22.4756 23.6113 22.585C23.6569 22.6032 23.707 22.6169 23.7617 22.626C23.8255 22.6351 23.8802 22.6396 23.9258 22.6396C23.9714 22.6396 24.0169 22.6351 24.0625 22.626C24.1081 22.6077 24.14 22.5758 24.1582 22.5303C24.2949 22.512 24.4316 22.5075 24.5684 22.5166H24.9785C25.1152 22.5166 25.2474 22.512 25.375 22.5029C25.5117 22.4938 25.6439 22.471 25.7715 22.4346C25.9173 22.3981 26.0586 22.3753 26.1953 22.3662C26.3411 22.3571 26.4824 22.348 26.6191 22.3389C26.7559 22.3298 26.8971 22.3161 27.043 22.2979C27.1888 22.2705 27.3392 22.2204 27.4941 22.1475C27.6126 22.193 27.7311 22.2158 27.8496 22.2158C27.9772 22.2158 28.1003 22.2249 28.2188 22.2432C28.2826 22.2887 28.3327 22.3389 28.3691 22.3936C28.4147 22.4482 28.4375 22.512 28.4375 22.585C28.4375 22.7126 28.3919 22.8402 28.3008 22.9678C28.2096 23.0954 28.1367 23.2139 28.082 23.3232H27.9316C27.7129 23.3232 27.4987 23.3551 27.2891 23.4189C27.0885 23.4736 26.8835 23.542 26.6738 23.624C26.4733 23.6969 26.2682 23.7653 26.0586 23.8291C25.8581 23.8838 25.6484 23.9111 25.4297 23.9111C25.3932 23.9111 25.3704 23.9339 25.3613 23.9795C25.3613 24.016 25.3522 24.0433 25.334 24.0615C25.2884 24.0524 25.2201 24.0479 25.1289 24.0479C24.9193 24.0479 24.7188 24.0706 24.5273 24.1162C24.3359 24.1618 24.14 24.1846 23.9395 24.1846H23.7754L23.6113 24.1572C23.5658 24.2301 23.5065 24.2803 23.4336 24.3076C23.3607 24.3258 23.2923 24.3623 23.2285 24.417C23.2012 24.499 23.1829 24.5993 23.1738 24.7178C23.1738 24.8363 23.1693 24.9593 23.1602 25.0869C23.1602 25.2054 23.151 25.3193 23.1328 25.4287C23.1146 25.5381 23.0781 25.6247 23.0234 25.6885C23.0326 25.734 23.069 25.7523 23.1328 25.7432C23.1966 25.7249 23.2285 25.7523 23.2285 25.8252C23.2285 25.9072 23.2194 25.9938 23.2012 26.085C23.1829 26.1761 23.1738 26.2673 23.1738 26.3584C23.1738 26.5316 23.1921 26.723 23.2285 26.9326C23.2741 27.1331 23.3379 27.32 23.4199 27.4932C23.5111 27.6663 23.6296 27.8122 23.7754 27.9307C23.9212 28.04 24.1035 28.0947 24.3223 28.0947C24.4681 28.0947 24.6048 28.0674 24.7324 28.0127C24.86 27.958 24.9648 27.8669 25.0469 27.7393L25.1152 27.7256C25.1517 27.7256 25.1836 27.7301 25.2109 27.7393C25.2474 27.7484 25.2839 27.7529 25.3203 27.7529C25.375 27.7529 25.4434 27.721 25.5254 27.6572C25.6165 27.5843 25.7122 27.5023 25.8125 27.4111C25.9219 27.32 26.0312 27.2334 26.1406 27.1514C26.25 27.0602 26.3548 26.9964 26.4551 26.96C26.5189 26.8324 26.5781 26.7048 26.6328 26.5771C26.6966 26.4495 26.7878 26.3493 26.9062 26.2764V25.8799C26.9974 25.7796 27.0931 25.6885 27.1934 25.6064C27.3027 25.5244 27.3848 25.4196 27.4395 25.292C27.485 25.3102 27.526 25.3239 27.5625 25.333C27.6081 25.3421 27.6536 25.3467 27.6992 25.3467C27.7448 25.3467 27.7904 25.3421 27.8359 25.333C27.8906 25.3239 27.9408 25.3102 27.9863 25.292C28.0592 25.3923 28.1139 25.5062 28.1504 25.6338C28.196 25.7523 28.2507 25.8662 28.3145 25.9756C28.2324 26.1396 28.1367 26.3356 28.0273 26.5635C27.918 26.7913 27.7995 27.0192 27.6719 27.2471C27.5443 27.4749 27.4076 27.6937 27.2617 27.9033C27.125 28.1038 26.9883 28.2588 26.8516 28.3682C26.8242 28.3955 26.765 28.4274 26.6738 28.4639C26.5736 28.5368 26.4824 28.6051 26.4004 28.6689C26.3184 28.7419 26.2409 28.8239 26.168 28.915C25.9036 28.9971 25.6484 29.1064 25.4023 29.2432C25.1654 29.3799 24.9284 29.512 24.6914 29.6396C24.582 29.6123 24.4635 29.5986 24.3359 29.5986C24.2266 29.5986 24.1172 29.6032 24.0078 29.6123C23.8984 29.6305 23.7799 29.6396 23.6523 29.6396C23.6159 29.5941 23.5612 29.5622 23.4883 29.5439C23.4245 29.5348 23.4017 29.4893 23.4199 29.4072C23.11 29.389 22.8594 29.3024 22.668 29.1475C22.4766 29.0016 22.3125 28.8193 22.1758 28.6006C22.0482 28.3818 21.9434 28.1449 21.8613 27.8896C21.7793 27.6344 21.6927 27.3883 21.6016 27.1514V27.1104C21.6016 27.0648 21.6198 27.0374 21.6562 27.0283C21.6927 27.0192 21.7109 26.9919 21.7109 26.9463C21.7109 26.9281 21.7064 26.9144 21.6973 26.9053C21.6699 26.805 21.6471 26.7184 21.6289 26.6455C21.6107 26.5726 21.6016 26.486 21.6016 26.3857C21.6016 26.2399 21.6107 26.0986 21.6289 25.9619C21.6471 25.8161 21.6562 25.6702 21.6562 25.5244C21.6562 25.3786 21.638 25.251 21.6016 25.1416C21.638 25.096 21.6699 25.0368 21.6973 24.9639C21.7155 24.8818 21.7292 24.7998 21.7383 24.7178C21.7474 24.6357 21.752 24.5537 21.752 24.4717C21.7611 24.3896 21.7747 24.3167 21.793 24.2529C21.7565 24.1527 21.7246 24.0661 21.6973 23.9932C21.6699 23.9111 21.6562 23.8154 21.6562 23.7061V23.6104C21.7474 23.4554 21.8249 23.2959 21.8887 23.1318C21.9525 22.9678 22.0208 22.7992 22.0938 22.626V22.585C22.0938 22.3206 22.0846 22.0563 22.0664 21.792C22.0482 21.5277 22.0391 21.2633 22.0391 20.999V20.7393C22.0391 20.6481 22.0436 20.5615 22.0527 20.4795C22.1257 20.443 22.1803 20.3929 22.2168 20.3291C22.2533 20.2653 22.3079 20.2152 22.3809 20.1787H22.832L22.9141 20.042C22.9414 19.9964 22.9596 19.9463 22.9688 19.8916C23.069 19.8643 23.1647 19.8278 23.2559 19.7822C23.3561 19.7275 23.4473 19.6729 23.5293 19.6182C23.6569 19.5452 23.7708 19.4814 23.8711 19.4268C23.9805 19.363 24.0853 19.3128 24.1855 19.2764C24.2949 19.2308 24.4089 19.1943 24.5273 19.167C24.6458 19.1396 24.7826 19.1169 24.9375 19.0986C25.0104 19.0986 25.056 19.085 25.0742 19.0576C25.1016 19.0303 25.138 18.9984 25.1836 18.9619L25.5117 19.0166C25.6211 19.0257 25.7305 19.0303 25.8398 19.0303C26.0586 19.0303 26.2637 18.9893 26.4551 18.9072C26.7285 18.9072 26.9974 18.9027 27.2617 18.8936C27.5352 18.8844 27.8086 18.8799 28.082 18.8799C28.319 18.8799 28.556 18.889 28.793 18.9072C29.0299 18.9255 29.2624 18.9574 29.4902 19.0029C29.5723 18.9756 29.6634 18.9619 29.7637 18.9619C29.873 18.9619 29.9824 18.9756 30.0918 19.0029C30.2103 19.0212 30.3242 19.0212 30.4336 19.0029C30.4427 19.1032 30.4655 19.1898 30.502 19.2627C30.5475 19.3265 30.5703 19.404 30.5703 19.4951ZM38.8008 18.2236C38.9193 18.1234 38.9876 17.9775 39.0059 17.7861C38.9421 17.7041 38.8646 17.6449 38.7734 17.6084C38.6914 17.5628 38.6003 17.5264 38.5 17.499C38.4089 17.4717 38.3132 17.4489 38.2129 17.4307C38.1126 17.4124 38.0169 17.3805 37.9258 17.335C37.7982 17.4443 37.6842 17.5674 37.584 17.7041C37.4928 17.8408 37.3971 17.9775 37.2969 18.1143C37.1966 18.2419 37.0918 18.3695 36.9824 18.4971C36.873 18.6156 36.7454 18.7204 36.5996 18.8115V19.0029C36.3171 19.2399 36.0618 19.5042 35.834 19.7959L35.1777 20.6709H34.9863C34.9225 20.9079 34.8132 21.0993 34.6582 21.2451C34.5033 21.391 34.3346 21.5277 34.1523 21.6553C34.1706 21.7282 34.1615 21.7783 34.125 21.8057C34.0977 21.8239 34.084 21.8558 34.084 21.9014C34.084 21.9196 34.0885 21.9333 34.0977 21.9424C33.9609 21.9971 33.8424 22.0791 33.7422 22.1885C33.6419 22.2979 33.5462 22.4118 33.4551 22.5303C33.373 22.6488 33.2819 22.7627 33.1816 22.8721C33.0814 22.9814 32.9629 23.0635 32.8262 23.1182C32.653 22.9268 32.498 22.7217 32.3613 22.5029C32.2246 22.2842 32.0924 22.0609 31.9648 21.833L31.6094 21.1494C31.4909 20.9215 31.3587 20.6982 31.2129 20.4795L30.9668 20.4248C30.8848 20.4066 30.8027 20.3929 30.7207 20.3838C30.7116 20.3109 30.6706 20.2607 30.5977 20.2334C30.5339 20.2061 30.4746 20.1742 30.4199 20.1377C30.4199 20.165 30.3971 20.1787 30.3516 20.1787H30.2285C30.1465 20.2881 30.0872 20.4111 30.0508 20.5479C30.0143 20.6755 29.9961 20.8031 29.9961 20.9307C29.9961 21.0674 30.0189 21.2087 30.0645 21.3545C30.11 21.4912 30.1829 21.6097 30.2832 21.71C30.2559 21.7646 30.2422 21.8239 30.2422 21.8877C30.2422 22.0062 30.2741 22.1064 30.3379 22.1885C30.4108 22.2614 30.4701 22.3434 30.5156 22.4346C30.5521 22.5075 30.5749 22.5895 30.584 22.6807C30.5931 22.7718 30.6204 22.8538 30.666 22.9268C30.7116 22.9997 30.7663 23.0635 30.8301 23.1182C30.903 23.1637 30.9622 23.2184 31.0078 23.2822L31.3086 23.665C31.4089 23.7926 31.5046 23.9248 31.5957 24.0615C31.6504 24.1436 31.696 24.2301 31.7324 24.3213C31.778 24.4124 31.819 24.5081 31.8555 24.6084C31.8281 24.654 31.7917 24.6859 31.7461 24.7041C31.7096 24.7223 31.6686 24.7451 31.623 24.7725C31.5866 24.7907 31.5547 24.818 31.5273 24.8545C31.5 24.8818 31.4863 24.9274 31.4863 24.9912V25.0459C31.4954 25.0641 31.5 25.0824 31.5 25.1006C31.3724 25.1188 31.2721 25.1598 31.1992 25.2236C31.1263 25.2874 31.0534 25.3604 30.9805 25.4424C30.9167 25.5244 30.8438 25.6019 30.7617 25.6748C30.6888 25.7386 30.5931 25.7751 30.4746 25.7842C30.429 25.9574 30.3379 26.0895 30.2012 26.1807C30.0736 26.2627 29.9323 26.3402 29.7773 26.4131C29.6953 26.5954 29.6224 26.7731 29.5586 26.9463C29.4948 27.1104 29.4629 27.2972 29.4629 27.5068C29.4629 27.5706 29.4674 27.6344 29.4766 27.6982C29.4766 27.7529 29.4811 27.8122 29.4902 27.876C29.554 27.9854 29.627 28.0902 29.709 28.1904L29.9277 28.4639C30.0007 28.4548 30.0599 28.4593 30.1055 28.4775C30.1602 28.4958 30.2194 28.514 30.2832 28.5322C30.3197 28.4411 30.3835 28.3727 30.4746 28.3271C30.5658 28.2907 30.666 28.2588 30.7754 28.2314C30.8939 28.2132 31.0078 28.1995 31.1172 28.1904C31.2266 28.1813 31.3223 28.1631 31.4043 28.1357C31.4134 28.0993 31.418 28.0537 31.418 27.999C31.418 27.9261 31.3997 27.8669 31.3633 27.8213C31.3359 27.7757 31.304 27.7347 31.2676 27.6982L31.1582 27.5752C31.1217 27.5296 31.1035 27.4704 31.1035 27.3975L31.8418 26.4678C32.0879 26.1579 32.3522 25.8662 32.6348 25.5928C32.6348 25.6201 32.653 25.6338 32.6895 25.6338C32.7259 25.6338 32.7578 25.6247 32.7852 25.6064C32.8216 25.5882 32.8626 25.5791 32.9082 25.5791C32.9447 25.5791 32.9674 25.5837 32.9766 25.5928C33.0586 25.6475 33.1361 25.7067 33.209 25.7705L33.4277 25.9619C33.6921 26.1715 33.9655 26.3857 34.248 26.6045C34.5306 26.8232 34.8223 27.0055 35.123 27.1514C35.2051 27.1878 35.3053 27.2197 35.4238 27.2471C35.5423 27.2653 35.6654 27.2835 35.793 27.3018L36.1758 27.3291H36.5039C36.6589 27.3291 36.8138 27.3245 36.9688 27.3154L37.4336 27.2881C37.5156 27.2425 37.6068 27.2197 37.707 27.2197C37.8164 27.2197 37.903 27.1969 37.9668 27.1514C38.0124 27.124 38.0397 27.0876 38.0488 27.042C38.0671 26.9964 38.1035 26.9691 38.1582 26.96C38.2493 26.9782 38.3223 26.9782 38.377 26.96C38.4316 26.9417 38.4772 26.9189 38.5137 26.8916L38.6367 26.8096C38.6823 26.7822 38.7415 26.7686 38.8145 26.7686C38.7871 26.6865 38.7689 26.609 38.7598 26.5361C38.7507 26.4541 38.7461 26.3721 38.7461 26.29V26.0713C38.737 26.0713 38.7233 26.0758 38.7051 26.085H38.6641C38.6185 26.085 38.5866 26.0667 38.5684 26.0303C38.5501 25.9847 38.5319 25.9482 38.5137 25.9209C38.4316 26.0029 38.3496 26.0439 38.2676 26.0439C38.1673 26.0439 38.0716 26.0212 37.9805 25.9756C37.8984 25.93 37.8164 25.8981 37.7344 25.8799C37.543 25.9893 37.3424 26.0439 37.1328 26.0439C36.8503 26.0439 36.5768 25.9984 36.3125 25.9072C36.0573 25.807 35.793 25.734 35.5195 25.6885C35.4375 25.4971 35.319 25.3421 35.1641 25.2236C35.0091 25.1051 34.8496 24.9958 34.6855 24.8955C34.5215 24.7861 34.3711 24.6676 34.2344 24.54C34.0977 24.4124 34.002 24.2393 33.9473 24.0205C34.1113 23.8382 34.2663 23.6468 34.4121 23.4463C34.5671 23.2367 34.722 23.0361 34.877 22.8447C35.0319 22.6442 35.1914 22.4528 35.3555 22.2705C35.5195 22.0791 35.7064 21.9059 35.916 21.751C36.0892 21.4593 36.2806 21.1813 36.4902 20.917C36.709 20.6436 36.9277 20.3792 37.1465 20.124C37.3743 19.8597 37.5931 19.5954 37.8027 19.3311C38.0215 19.0667 38.2266 18.7933 38.418 18.5107C38.5638 18.4105 38.6914 18.3148 38.8008 18.2236ZM30.5996 32.2822C30.5996 32.4645 30.5768 32.6423 30.5312 32.8154C30.4857 32.9795 30.4492 33.1527 30.4219 33.335C30.4128 33.3532 30.4082 33.3851 30.4082 33.4307C30.4082 33.4854 30.4128 33.54 30.4219 33.5947C30.431 33.6403 30.4447 33.6859 30.4629 33.7314C30.3717 33.9137 30.3034 34.1097 30.2578 34.3193C30.2122 34.5199 30.1712 34.7249 30.1348 34.9346L30.0254 35.5635C29.9889 35.7731 29.9388 35.9782 29.875 36.1787V36.2197C29.875 36.2653 29.8841 36.3063 29.9023 36.3428C29.9297 36.3792 29.9434 36.4202 29.9434 36.4658V36.5205C29.8249 36.9033 29.7337 37.2998 29.6699 37.71C29.6061 38.111 29.5013 38.4847 29.3555 38.8311C29.3737 38.9222 29.3828 38.9906 29.3828 39.0361C29.3828 39.1364 29.3691 39.2275 29.3418 39.3096C29.3236 39.3825 29.2962 39.4508 29.2598 39.5146L29.1641 39.6924C29.1367 39.7471 29.1139 39.8063 29.0957 39.8701C29.0866 39.9066 29.082 39.943 29.082 39.9795V40.0889C29.0729 40.2985 29.0638 40.4808 29.0547 40.6357C29.0456 40.7907 28.9818 40.9593 28.8633 41.1416C28.8542 41.3786 28.8268 41.6064 28.7812 41.8252C28.7448 42.0439 28.6901 42.2673 28.6172 42.4951C28.5716 42.6774 28.5169 42.8597 28.4531 43.042C28.3893 43.2243 28.3438 43.4066 28.3164 43.5889C28.2982 43.68 28.2936 43.7939 28.3027 43.9307C28.321 44.0583 28.3301 44.1722 28.3301 44.2725C28.3301 44.4821 28.321 44.6872 28.3027 44.8877C28.2936 45.0973 28.2663 45.2979 28.2207 45.4893C28.248 45.626 28.2982 45.749 28.3711 45.8584C28.444 45.9769 28.4896 46.1045 28.5078 46.2412C28.5352 46.2686 28.5625 46.2822 28.5898 46.2822C28.6081 46.2822 28.6263 46.2777 28.6445 46.2686C28.6719 46.2594 28.6992 46.2549 28.7266 46.2549C28.763 46.2549 28.7904 46.264 28.8086 46.2822C28.8359 46.3551 28.8496 46.4189 28.8496 46.4736C28.8496 46.583 28.7995 46.6787 28.6992 46.7607C28.7083 46.8154 28.7129 46.861 28.7129 46.8975V47.0342C28.7129 47.098 28.7038 47.18 28.6855 47.2803C28.6764 47.3805 28.6263 47.4307 28.5352 47.4307C28.4896 47.4307 28.4668 47.4033 28.4668 47.3486C28.4759 47.3031 28.4577 47.2712 28.4121 47.2529C28.3574 47.2712 28.3118 47.2803 28.2754 47.2803C28.2025 47.2803 28.1432 47.2666 28.0977 47.2393L27.9609 47.1572C27.9154 47.1299 27.8652 47.1025 27.8105 47.0752C27.765 47.057 27.7057 47.0524 27.6328 47.0615C27.5599 46.9248 27.4779 46.7926 27.3867 46.665C27.3047 46.5466 27.209 46.4372 27.0996 46.3369C27.0358 46.1182 26.9948 45.8903 26.9766 45.6533C26.9674 45.4255 26.9219 45.2067 26.8398 44.9971C26.849 44.988 26.8626 44.9606 26.8809 44.915L26.9355 44.7783C26.9538 44.7327 26.9674 44.6872 26.9766 44.6416C26.9948 44.596 27.0039 44.5641 27.0039 44.5459C27.0039 44.4912 26.9948 44.4411 26.9766 44.3955C26.9583 44.359 26.9447 44.318 26.9355 44.2725C26.9993 44.0628 27.0404 43.835 27.0586 43.5889C27.0768 43.3428 27.1361 43.1286 27.2363 42.9463C27.2454 42.8551 27.2546 42.7503 27.2637 42.6318C27.2728 42.5042 27.2865 42.3857 27.3047 42.2764C27.332 42.1579 27.3639 42.0485 27.4004 41.9482C27.446 41.8389 27.5098 41.7477 27.5918 41.6748C27.5736 41.6292 27.5599 41.5791 27.5508 41.5244V41.3604C27.5508 41.1416 27.5736 40.932 27.6191 40.7314C27.6738 40.5218 27.7331 40.3122 27.7969 40.1025L27.8516 39.9111C27.8789 39.8473 27.9017 39.779 27.9199 39.7061C27.929 39.6878 27.929 39.6696 27.9199 39.6514V39.5967C27.9199 39.4873 27.9062 39.3825 27.8789 39.2822C27.9336 39.2458 27.9701 39.2002 27.9883 39.1455C28.0065 39.0817 28.0202 39.0179 28.0293 38.9541C28.0475 38.8812 28.0658 38.8128 28.084 38.749C28.1022 38.6852 28.1341 38.6305 28.1797 38.585V38.5166C28.1797 38.1976 28.2253 37.8877 28.3164 37.5869C28.4076 37.277 28.4896 36.9717 28.5625 36.6709V36.6162C28.5625 36.5798 28.5534 36.5524 28.5352 36.5342C28.5169 36.516 28.5078 36.4886 28.5078 36.4521V36.4248C28.526 36.3428 28.5488 36.2653 28.5762 36.1924C28.6035 36.1104 28.6263 36.0283 28.6445 35.9463C28.6901 35.7458 28.7174 35.5452 28.7266 35.3447C28.7448 35.1442 28.7904 34.9482 28.8633 34.7568C28.8451 34.6839 28.8359 34.611 28.8359 34.5381V34.3193C28.8359 34.1097 28.8451 33.9092 28.8633 33.7178C28.8906 33.5173 28.9271 33.3167 28.9727 33.1162C28.9909 33.0433 29.0137 32.9476 29.041 32.8291C29.0775 32.7106 29.0957 32.6195 29.0957 32.5557C29.0957 32.4463 29.082 32.3369 29.0547 32.2275C29.0273 32.109 29.0137 31.9951 29.0137 31.8857C29.0137 31.8311 29.0182 31.7764 29.0273 31.7217C29.0365 31.667 29.0592 31.6169 29.0957 31.5713C29.0319 31.4528 29 31.3161 29 31.1611C29 31.0335 29.0182 30.9059 29.0547 30.7783C29.0911 30.6416 29.1549 30.5277 29.2461 30.4365H29.6562C29.7839 30.4365 29.9115 30.4548 30.0391 30.4912C30.1667 30.5277 30.2624 30.6097 30.3262 30.7373C30.3444 30.7646 30.3626 30.8148 30.3809 30.8877C30.4082 30.9515 30.431 31.0244 30.4492 31.1064C30.4766 31.1794 30.4993 31.2523 30.5176 31.3252C30.5358 31.389 30.5449 31.4391 30.5449 31.4756C30.5449 31.585 30.5176 31.6852 30.4629 31.7764C30.5267 31.8493 30.5632 31.9313 30.5723 32.0225C30.5905 32.1045 30.5996 32.1911 30.5996 32.2822ZM47.1836 44.1221C47.1289 44.195 47.0605 44.2451 46.9785 44.2725C46.8965 44.2998 46.8145 44.3226 46.7324 44.3408C46.6504 44.359 46.5638 44.3773 46.4727 44.3955C46.3906 44.4229 46.3177 44.4639 46.2539 44.5186C46.2357 44.5277 46.222 44.5368 46.2129 44.5459C46.2129 44.555 46.2038 44.5596 46.1855 44.5596C46.1582 44.5596 46.1309 44.5368 46.1035 44.4912C46.0853 44.4548 46.0534 44.4274 46.0078 44.4092C45.7708 44.5368 45.5156 44.6462 45.2422 44.7373L44.4219 45.0381C44.1576 45.1475 43.8978 45.2614 43.6426 45.3799C43.3874 45.5075 43.1641 45.6624 42.9727 45.8447C42.8268 45.863 42.6764 45.8949 42.5215 45.9404C42.3757 45.9951 42.2663 46.0954 42.1934 46.2412H42.1523C42.1159 46.2412 42.0885 46.2275 42.0703 46.2002C42.0521 46.182 42.0247 46.1729 41.9883 46.1729C41.9245 46.1729 41.8835 46.1911 41.8652 46.2275C41.847 46.264 41.8333 46.3005 41.8242 46.3369C41.8242 46.3825 41.8197 46.4235 41.8105 46.46C41.8014 46.4964 41.7741 46.5146 41.7285 46.5146C41.7103 46.5146 41.6921 46.4964 41.6738 46.46C41.6556 46.4326 41.61 46.4235 41.5371 46.4326C41.1999 46.6149 40.849 46.7972 40.4844 46.9795C40.1198 47.1709 39.8053 47.4124 39.541 47.7041C39.5228 47.6859 39.5 47.6768 39.4727 47.6768H39.4316L39.418 47.6904C39.3997 47.6904 39.3861 47.6859 39.377 47.6768C39.3678 47.6676 39.3587 47.6631 39.3496 47.6631C39.14 47.8454 38.9167 48.0094 38.6797 48.1553C38.4518 48.3102 38.2194 48.4606 37.9824 48.6064C37.7454 48.7523 37.513 48.8981 37.2852 49.0439C37.0573 49.1989 36.8431 49.3721 36.6426 49.5635C36.515 49.5726 36.3874 49.5999 36.2598 49.6455L35.877 49.7822C35.7585 49.8278 35.6354 49.8688 35.5078 49.9053C35.3802 49.9508 35.2526 49.9736 35.125 49.9736C34.888 49.9736 34.6921 49.8688 34.5371 49.6592C34.5098 49.6774 34.4824 49.6911 34.4551 49.7002C34.4368 49.7093 34.4141 49.7139 34.3867 49.7139C34.3138 49.7139 34.2454 49.682 34.1816 49.6182C34.127 49.5635 34.0495 49.5452 33.9492 49.5635C33.8307 49.4359 33.7441 49.2718 33.6895 49.0713C33.6439 48.8799 33.5846 48.7021 33.5117 48.5381C33.5299 48.1826 33.5892 47.8363 33.6895 47.499C33.7988 47.1709 33.8672 46.8291 33.8945 46.4736C33.9766 46.3916 34.0404 46.2959 34.0859 46.1865C34.1315 46.0863 34.1725 45.9769 34.209 45.8584L34.3457 45.5303C34.3913 45.4209 34.4551 45.3298 34.5371 45.2568C34.5918 44.9834 34.6829 44.7236 34.8105 44.4775C34.9382 44.2314 35.0247 43.9671 35.0703 43.6846C35.1432 43.639 35.2025 43.5843 35.248 43.5205C35.3027 43.4567 35.362 43.3975 35.4258 43.3428V43.2607C35.4258 43.1878 35.4076 43.1331 35.3711 43.0967C35.4349 42.9326 35.5033 42.7777 35.5762 42.6318C35.6582 42.486 35.7357 42.3402 35.8086 42.1943C35.8815 42.0485 35.9453 41.8981 36 41.7432C36.0547 41.5882 36.0911 41.4196 36.1094 41.2373C36.1823 41.1735 36.237 41.096 36.2734 41.0049C36.3099 40.9046 36.3418 40.8089 36.3691 40.7178C36.4056 40.6175 36.4421 40.5264 36.4785 40.4443C36.5241 40.3623 36.597 40.2985 36.6973 40.2529C36.6882 40.2347 36.6836 40.2119 36.6836 40.1846C36.6836 40.0934 36.7064 40.0114 36.752 39.9385C36.8066 39.8656 36.834 39.7881 36.834 39.7061C36.834 39.6605 36.8203 39.6149 36.793 39.5693C36.9753 39.1865 37.153 38.8128 37.3262 38.4482C37.4993 38.0745 37.6315 37.6781 37.7227 37.2588C37.8138 37.2132 37.8685 37.1449 37.8867 37.0537C37.9049 36.9626 37.946 36.8805 38.0098 36.8076V36.7393C38.0098 36.5843 38.0417 36.4111 38.1055 36.2197C38.1784 36.0283 38.265 35.8688 38.3652 35.7412C38.4108 35.4222 38.4609 35.0895 38.5156 34.7432C38.5794 34.3877 38.6751 34.0641 38.8027 33.7725C38.7845 33.7087 38.7572 33.6449 38.7207 33.5811C38.6934 33.5173 38.6706 33.4489 38.6523 33.376C38.4245 33.5036 38.1647 33.6175 37.873 33.7178C37.8184 33.736 37.7591 33.7542 37.6953 33.7725C37.6315 33.7816 37.5768 33.7998 37.5312 33.8271C37.4766 33.8454 37.4447 33.891 37.4355 33.9639C37.4264 34.0277 37.4219 34.0824 37.4219 34.1279C37.3125 34.1279 37.2259 34.1507 37.1621 34.1963C37.0983 34.2419 37.0345 34.2965 36.9707 34.3604C36.916 34.415 36.8568 34.4697 36.793 34.5244C36.7292 34.57 36.6471 34.6019 36.5469 34.6201C36.4375 34.7295 36.3464 34.8161 36.2734 34.8799C36.2005 34.9346 36.0957 34.9893 35.959 35.0439C35.9134 35.0622 35.8678 35.0986 35.8223 35.1533L35.6855 35.3174C35.64 35.3721 35.5944 35.4176 35.5488 35.4541C35.5124 35.4906 35.4714 35.5042 35.4258 35.4951C35.3984 35.5771 35.3574 35.6455 35.3027 35.7002C35.2572 35.7549 35.207 35.8096 35.1523 35.8643C35.0977 35.9098 35.0521 35.9645 35.0156 36.0283C34.9792 36.0921 34.9655 36.1742 34.9746 36.2744C34.9382 36.3109 34.9062 36.3291 34.8789 36.3291C34.8516 36.3291 34.8197 36.3109 34.7832 36.2744C34.765 36.3838 34.7285 36.4749 34.6738 36.5479C34.6283 36.6117 34.5736 36.6709 34.5098 36.7256C34.446 36.7803 34.3776 36.835 34.3047 36.8896C34.2318 36.9443 34.1634 37.0036 34.0996 37.0674C34.0176 37.0583 33.9447 37.04 33.8809 37.0127C33.8262 36.9854 33.7669 36.958 33.7031 36.9307C33.6393 36.9033 33.571 36.8851 33.498 36.876C33.4342 36.8577 33.3522 36.8532 33.252 36.8623C33.2611 36.8076 33.252 36.7666 33.2246 36.7393C33.1973 36.7119 33.1608 36.6891 33.1152 36.6709V36.3975C33.1243 36.2881 33.1289 36.1787 33.1289 36.0693C33.138 35.9508 33.1517 35.8415 33.1699 35.7412C33.1882 35.641 33.2155 35.5589 33.252 35.4951C33.3066 35.404 33.3932 35.3219 33.5117 35.249C33.6393 35.1761 33.7715 35.1032 33.9082 35.0303C34.054 34.9482 34.1908 34.8662 34.3184 34.7842C34.4551 34.693 34.5645 34.5837 34.6465 34.4561C34.6556 34.4652 34.6738 34.4697 34.7012 34.4697C34.7741 34.4697 34.8333 34.4515 34.8789 34.415C34.9245 34.333 34.9837 34.2738 35.0566 34.2373C35.1387 34.2008 35.2116 34.1462 35.2754 34.0732C35.3027 34.0459 35.3164 34.014 35.3164 33.9775C35.3255 33.932 35.3438 33.8955 35.3711 33.8682C35.3984 33.8408 35.4486 33.8135 35.5215 33.7861C35.6035 33.7588 35.6673 33.7223 35.7129 33.6768C35.7676 33.6312 35.8086 33.5811 35.8359 33.5264C35.8724 33.4717 35.9134 33.4215 35.959 33.376C36.0319 33.3213 36.1094 33.2803 36.1914 33.2529C36.2826 33.2256 36.3691 33.1891 36.4512 33.1436C36.5332 33.0889 36.6061 33.0251 36.6699 32.9521C36.7428 32.8792 36.7975 32.7926 36.834 32.6924C37.0163 32.6104 37.194 32.5283 37.3672 32.4463C37.5404 32.3551 37.709 32.2594 37.873 32.1592C37.9642 32.1045 38.0508 32.0452 38.1328 31.9814C38.2148 31.9085 38.2969 31.8402 38.3789 31.7764C38.4701 31.7126 38.5612 31.6579 38.6523 31.6123C38.7526 31.5667 38.8574 31.5439 38.9668 31.5439C39.1035 31.5439 39.2083 31.5713 39.2812 31.626C39.3542 31.6715 39.418 31.7262 39.4727 31.79C39.5365 31.8447 39.6003 31.904 39.6641 31.9678C39.737 32.0316 39.8281 32.0771 39.9375 32.1045C40.0286 32.2503 40.0879 32.4098 40.1152 32.583C40.1517 32.7471 40.1745 32.9202 40.1836 33.1025C40.1927 33.2757 40.1927 33.4489 40.1836 33.6221C40.1836 33.7952 40.1973 33.9639 40.2246 34.1279C40.1699 34.2829 40.1061 34.4333 40.0332 34.5791C39.9603 34.7249 39.9238 34.8799 39.9238 35.0439C39.9238 35.1077 39.9284 35.1624 39.9375 35.208H39.7734C39.737 35.5088 39.6686 35.805 39.5684 36.0967C39.4681 36.3792 39.3542 36.6618 39.2266 36.9443L38.8574 37.7783C38.7389 38.0518 38.6387 38.3343 38.5566 38.626C38.5384 38.708 38.5065 38.7581 38.4609 38.7764C38.4154 38.7855 38.3835 38.8219 38.3652 38.8857C38.3197 38.986 38.2832 39.0954 38.2559 39.2139C38.2285 39.3324 38.1921 39.4463 38.1465 39.5557C38.0553 39.7926 37.9642 40.0205 37.873 40.2393C37.7819 40.458 37.6862 40.6722 37.5859 40.8818V41.0186C37.5859 41.0641 37.5996 41.0869 37.627 41.0869C37.3353 41.488 37.1393 41.9437 37.0391 42.4541C36.9661 42.5088 36.9115 42.5771 36.875 42.6592C36.8477 42.7321 36.8021 42.7959 36.7383 42.8506C36.6745 43.1149 36.5879 43.3747 36.4785 43.6299C36.3783 43.876 36.2734 44.1221 36.1641 44.3682C36.0547 44.6143 35.9499 44.8604 35.8496 45.1064C35.7493 45.3617 35.6719 45.6214 35.6172 45.8857C35.5169 45.9769 35.4349 46.0863 35.3711 46.2139C35.3164 46.3415 35.2663 46.4782 35.2207 46.624L35.1113 47.0615C35.084 47.2074 35.0521 47.3395 35.0156 47.458L34.8789 47.9502V48.2236C34.8789 48.2692 34.8743 48.3193 34.8652 48.374C34.8561 48.4287 34.8288 48.4652 34.7832 48.4834C34.8014 48.5472 34.8242 48.5973 34.8516 48.6338C34.888 48.6702 34.8971 48.7204 34.8789 48.7842C34.9154 48.8571 34.9792 48.8981 35.0703 48.9072C35.1706 48.9255 35.2572 48.9482 35.3301 48.9756C35.403 48.9574 35.444 48.9163 35.4531 48.8525C35.4622 48.7887 35.485 48.7341 35.5215 48.6885C35.6035 48.5791 35.7266 48.4606 35.8906 48.333C36.0638 48.2054 36.2461 48.0732 36.4375 47.9365C36.638 47.7998 36.8294 47.6676 37.0117 47.54C37.2031 47.4216 37.3581 47.3122 37.4766 47.2119H37.7227C38.0508 47.0023 38.3789 46.7972 38.707 46.5967C39.0352 46.4053 39.377 46.2321 39.7324 46.0771C39.8236 45.9587 39.9329 45.8675 40.0605 45.8037L40.4707 45.6123C40.6165 45.5576 40.7533 45.4984 40.8809 45.4346C41.0176 45.3708 41.127 45.2796 41.209 45.1611C41.3092 45.1429 41.4186 45.1201 41.5371 45.0928C41.6556 45.0654 41.7422 45.0016 41.7969 44.9014H41.8516C41.8789 44.9014 41.9062 44.9059 41.9336 44.915C41.9609 44.9333 41.9792 44.9606 41.9883 44.9971C42.0521 44.9788 42.0885 44.9378 42.0977 44.874C42.1159 44.8102 42.1478 44.7555 42.1934 44.71C42.4577 44.6097 42.7266 44.5049 43 44.3955C43.2734 44.2861 43.5423 44.1631 43.8066 44.0264C43.9342 44.0264 44.0755 44.0081 44.2305 43.9717C44.3945 43.9352 44.5176 43.8532 44.5996 43.7256C44.6178 43.7347 44.6406 43.7393 44.668 43.7393C44.7682 43.7393 44.8639 43.7256 44.9551 43.6982L45.2559 43.5889C45.3561 43.5433 45.4564 43.5023 45.5566 43.4658C45.6569 43.4294 45.7617 43.4066 45.8711 43.3975H45.8984C45.9167 43.3975 45.9212 43.3747 45.9121 43.3291V43.2334C45.9121 43.1969 45.9303 43.1833 45.9668 43.1924C45.9941 43.1833 46.0397 43.1787 46.1035 43.1787C46.2038 43.1787 46.2949 43.2015 46.377 43.2471C46.4681 43.2835 46.5547 43.3291 46.6367 43.3838C46.7188 43.4385 46.8008 43.4977 46.8828 43.5615C46.9648 43.6162 47.0514 43.6572 47.1426 43.6846C47.1243 43.7575 47.1152 43.8167 47.1152 43.8623C47.1152 43.9079 47.1198 43.9535 47.1289 43.999C47.1471 44.0355 47.1654 44.0765 47.1836 44.1221ZM54.9492 39.4736C55.0039 39.2913 55.0312 39.0954 55.0312 38.8857C55.0312 38.8402 55.0267 38.7627 55.0176 38.6533C55.0176 38.5439 55.0085 38.471 54.9902 38.4346C54.9811 38.4163 54.9629 38.389 54.9355 38.3525C54.9082 38.307 54.8854 38.2751 54.8672 38.2568C54.7578 38.1201 54.6302 38.0016 54.4844 37.9014C54.3477 37.792 54.1973 37.6963 54.0332 37.6143C53.8783 37.5322 53.7142 37.4548 53.541 37.3818C53.377 37.3089 53.222 37.236 53.0762 37.1631C53.0306 37.1722 52.9622 37.1768 52.8711 37.1768C52.7708 37.1768 52.6797 37.1585 52.5977 37.1221C52.5247 37.0856 52.4473 37.0674 52.3652 37.0674C52.2103 37.0674 52.0599 37.0811 51.9141 37.1084C51.7773 37.1357 51.6315 37.1494 51.4766 37.1494C51.3672 37.1494 51.2669 37.1357 51.1758 37.1084C50.9935 37.1813 50.8158 37.2451 50.6426 37.2998C50.4785 37.3545 50.2962 37.3818 50.0957 37.3818H49.9453C49.8997 37.3727 49.8496 37.3636 49.7949 37.3545C50.0137 36.9443 50.2188 36.5387 50.4102 36.1377C50.6016 35.7275 50.7474 35.29 50.8477 34.8252C50.8568 34.807 50.8704 34.7568 50.8887 34.6748C50.9069 34.5837 50.916 34.529 50.916 34.5107C50.916 34.2282 50.8704 33.9183 50.7793 33.5811C50.6882 33.2438 50.5605 32.9613 50.3965 32.7334C50.3509 32.6696 50.3008 32.6149 50.2461 32.5693L50.0957 32.4053C50.041 32.3506 50.0091 32.2913 50 32.2275C50 32.1637 49.9818 32.109 49.9453 32.0635C49.9089 32.0179 49.8542 31.9906 49.7812 31.9814C49.7174 31.9632 49.6901 31.9085 49.6992 31.8174C49.6628 31.79 49.6126 31.7764 49.5488 31.7764C49.4941 31.7673 49.4349 31.7581 49.3711 31.749C49.3164 31.7308 49.2663 31.7126 49.2207 31.6943C49.1842 31.667 49.1615 31.626 49.1523 31.5713C49.0703 31.5986 48.9837 31.6123 48.8926 31.6123C48.7832 31.6123 48.6693 31.5986 48.5508 31.5713C48.4414 31.5439 48.3275 31.5303 48.209 31.5303C48.1087 31.5303 48.0176 31.5439 47.9355 31.5713C47.9355 31.5257 47.9173 31.5075 47.8809 31.5166C47.8717 31.6351 47.8307 31.7217 47.7578 31.7764C47.6849 31.8219 47.6029 31.863 47.5117 31.8994C47.4297 31.9268 47.3477 31.9632 47.2656 32.0088C47.1836 32.0452 47.1289 32.109 47.1016 32.2002H46.8418C46.7324 32.3278 46.6048 32.4417 46.459 32.542C46.3132 32.6423 46.1628 32.7425 46.0078 32.8428C45.862 32.9339 45.7207 33.0387 45.584 33.1572C45.4473 33.2666 45.3333 33.3942 45.2422 33.54C45.0599 33.6038 44.9095 33.6995 44.791 33.8271C44.6816 33.9456 44.5768 34.0778 44.4766 34.2236L44.2031 34.6611C44.112 34.807 43.998 34.9346 43.8613 35.0439C43.8249 35.208 43.7839 35.3675 43.7383 35.5225C43.6927 35.6683 43.6699 35.8232 43.6699 35.9873C43.6699 36.1514 43.7018 36.2972 43.7656 36.4248C43.9023 36.5251 44.0391 36.6208 44.1758 36.7119C44.3216 36.8031 44.4811 36.8714 44.6543 36.917C44.8275 36.8167 44.9961 36.7119 45.1602 36.6025C45.3333 36.4932 45.4564 36.3337 45.5293 36.124H45.5566C45.5749 36.124 45.5931 36.1331 45.6113 36.1514C45.6296 36.1605 45.6432 36.165 45.6523 36.165C45.6706 36.165 45.6797 36.1605 45.6797 36.1514V36.124L45.666 36.083C45.6934 36.0192 45.7161 35.9463 45.7344 35.8643C45.7526 35.7731 45.7754 35.6911 45.8027 35.6182C45.8301 35.5361 45.8665 35.4678 45.9121 35.4131C45.9668 35.3584 46.0352 35.3219 46.1172 35.3037V35.0439C46.2995 34.8525 46.4863 34.6702 46.6777 34.4971C46.8783 34.3239 47.0833 34.1462 47.293 33.9639L47.4297 33.8545C47.4844 33.8089 47.5391 33.7679 47.5938 33.7314C47.6484 33.695 47.7214 33.6494 47.8125 33.5947C47.9036 33.5309 47.9948 33.4762 48.0859 33.4307C48.1862 33.3851 48.2819 33.3441 48.373 33.3076C48.4642 33.2712 48.5462 33.2529 48.6191 33.2529C48.8014 33.2529 48.9655 33.3167 49.1113 33.4443C49.1022 33.5355 49.1113 33.6084 49.1387 33.6631L49.248 33.8271C49.2936 33.8727 49.3301 33.9274 49.3574 33.9912C49.3939 34.055 49.4121 34.1325 49.4121 34.2236C49.4121 34.2783 49.3939 34.3239 49.3574 34.3604C49.3301 34.3968 49.3164 34.4469 49.3164 34.5107C49.2891 34.9118 49.2207 35.2718 49.1113 35.5908C49.0111 35.9007 48.8789 36.1969 48.7148 36.4795C48.5599 36.7529 48.3776 37.0218 48.168 37.2861C47.9583 37.5413 47.7305 37.8148 47.4844 38.1064C47.3477 38.1702 47.2337 38.2614 47.1426 38.3799C47.0514 38.4984 46.9512 38.6169 46.8418 38.7354C46.8509 38.8174 46.8555 38.9085 46.8555 39.0088C46.8555 39.0999 46.8372 39.1911 46.8008 39.2822C46.8646 39.3096 46.9238 39.3597 46.9785 39.4326L47.1426 39.624C47.1973 39.6878 47.2565 39.7471 47.3203 39.8018C47.3932 39.8473 47.4707 39.8701 47.5527 39.8701C47.5892 39.8701 47.6211 39.8564 47.6484 39.8291L47.7305 39.7197C47.7578 39.6742 47.7852 39.6331 47.8125 39.5967C47.849 39.5511 47.89 39.5238 47.9355 39.5146C47.9811 39.5329 48.0221 39.5648 48.0586 39.6104C48.0951 39.6468 48.1361 39.6787 48.1816 39.7061C48.2546 39.6605 48.3047 39.6149 48.332 39.5693C48.3594 39.5238 48.4232 39.4919 48.5234 39.4736C48.724 39.4281 48.8971 39.3779 49.043 39.3232C49.1979 39.2686 49.3392 39.2093 49.4668 39.1455C49.6035 39.0817 49.7357 39.0133 49.8633 38.9404C50 38.8675 50.1549 38.7855 50.3281 38.6943C50.4466 38.7035 50.5651 38.6943 50.6836 38.667C50.8021 38.6396 50.916 38.6123 51.0254 38.585L51.3672 38.4893C51.4857 38.4528 51.6042 38.4346 51.7227 38.4346H51.8594C51.8958 38.4163 51.9049 38.3753 51.8867 38.3115C51.8776 38.2477 51.9004 38.2113 51.9551 38.2021C52.0645 38.2751 52.2103 38.3206 52.3926 38.3389C52.584 38.3571 52.7663 38.3799 52.9395 38.4072C53.1126 38.4346 53.263 38.4893 53.3906 38.5713C53.5182 38.6442 53.582 38.7809 53.582 38.9814C53.582 39.1637 53.5592 39.3187 53.5137 39.4463C53.4681 39.5739 53.4134 39.6969 53.3496 39.8154C53.2949 39.9248 53.2311 40.0387 53.1582 40.1572C53.0944 40.2757 53.0352 40.4079 52.9805 40.5537C52.8255 40.6084 52.707 40.6995 52.625 40.8271C52.543 40.9548 52.4655 41.0915 52.3926 41.2373C52.2559 41.2738 52.151 41.3467 52.0781 41.4561C52.0143 41.5563 51.9232 41.6292 51.8047 41.6748C51.8047 41.7751 51.7773 41.8525 51.7227 41.9072C51.668 41.9528 51.6315 42.0212 51.6133 42.1123C51.3216 42.3219 51.0345 42.5498 50.752 42.7959C50.4694 43.042 50.1914 43.2835 49.918 43.5205C49.7904 43.6299 49.6582 43.7438 49.5215 43.8623C49.3939 43.9717 49.2572 44.0765 49.1113 44.1768C49.0658 44.2132 49.0065 44.2314 48.9336 44.2314C48.9062 44.2314 48.8835 44.2269 48.8652 44.2178C48.8835 44.2998 48.8698 44.359 48.8242 44.3955C48.7878 44.4411 48.7559 44.5003 48.7285 44.5732C48.3822 44.7464 48.054 44.9424 47.7441 45.1611C47.4342 45.3799 47.1335 45.6077 46.8418 45.8447C46.6413 45.9085 46.4499 45.9906 46.2676 46.0908L45.7207 46.4189C45.5475 46.5374 45.3652 46.6514 45.1738 46.7607C44.9915 46.8701 44.8001 46.9567 44.5996 47.0205C44.5632 47.0387 44.5358 47.0479 44.5176 47.0479C44.4811 47.0479 44.4447 47.0387 44.4082 47.0205C44.3717 47.0114 44.3307 47.0068 44.2852 47.0068H44.2441C44.235 47.0159 44.2214 47.0205 44.2031 47.0205C43.9115 47.3395 43.5514 47.5856 43.123 47.7588V47.8271C43.123 47.9365 43.1413 48.0231 43.1777 48.0869C43.2233 48.1598 43.2734 48.2191 43.3281 48.2646C43.3919 48.3193 43.4557 48.3695 43.5195 48.415C43.5924 48.4697 43.6562 48.529 43.7109 48.5928H43.7656C43.9206 48.5928 44.0573 48.5563 44.1758 48.4834C44.3034 48.4105 44.4447 48.3649 44.5996 48.3467C44.6908 48.2373 44.7956 48.1462 44.9141 48.0732L45.2969 47.8818L45.6797 47.7041C45.8073 47.6494 45.9212 47.5719 46.0215 47.4717C46.1126 47.4808 46.1719 47.4626 46.1992 47.417C46.2357 47.3714 46.2904 47.3486 46.3633 47.3486H46.418C46.418 47.2848 46.4499 47.2393 46.5137 47.2119C46.5775 47.1846 46.6367 47.1572 46.6914 47.1299C46.7552 47.1117 46.8145 47.0843 46.8691 47.0479C47.0605 46.9294 47.2474 46.8109 47.4297 46.6924C47.6211 46.5739 47.8216 46.4873 48.0312 46.4326C48.2135 46.2321 48.4186 46.0635 48.6465 45.9268C48.8835 45.79 49.1204 45.6624 49.3574 45.5439C49.4668 45.4255 49.5716 45.3161 49.6719 45.2158C49.7812 45.1156 49.9225 45.0426 50.0957 44.9971C50.3691 44.751 50.6471 44.5003 50.9297 44.2451C51.2214 43.999 51.5312 43.7803 51.8594 43.5889C51.8594 43.5251 51.873 43.4704 51.9004 43.4248C51.9277 43.3701 51.946 43.3063 51.9551 43.2334C52.0645 43.124 52.1875 43.0329 52.3242 42.96C52.4701 42.8779 52.5749 42.7594 52.6387 42.6045C52.6751 42.6136 52.7025 42.6136 52.7207 42.6045L52.7754 42.5498C52.7936 42.5225 52.8118 42.4997 52.8301 42.4814C52.8574 42.4632 52.8848 42.4541 52.9121 42.4541H52.9395C53.1035 42.1807 53.2904 41.9255 53.5 41.6885C53.7096 41.4424 53.9193 41.2008 54.1289 40.9639C54.2201 40.8636 54.3203 40.7497 54.4297 40.6221C54.5482 40.4945 54.6393 40.3714 54.7031 40.2529L54.7715 40.0342C54.8353 39.8337 54.8945 39.6468 54.9492 39.4736Z" />
</svg>
